<svg width="30" height="34" viewBox="0 0 30 34" fill="none" xmlns="http://www.w3.org/2000/svg">
<path d="M22.9166 3.78506V1.22892C22.9166 0.557109 22.35 0 21.6666 0C20.9833 0 20.4166 0.557109 20.4166 1.22892V3.68675H9.58331V1.22892C9.58331 0.557109 9.01664 0 8.33331 0C7.64997 0 7.08331 0.557109 7.08331 1.22892V3.78506C2.58331 4.1947 0.399975 6.83277 0.0666417 10.7489C0.0333084 11.2241 0.433308 11.6173 0.899975 11.6173H29.1C29.5833 11.6173 29.9833 11.2077 29.9333 10.7489C29.6 6.83277 27.4166 4.1947 22.9166 3.78506Z" fill="black"/>
<path opacity="0.4" d="M28.3333 14.0752C29.25 14.0752 30 14.8126 30 15.7138V25.8073C30 30.723 27.5 34.0001 21.6667 34.0001H8.33333C2.5 34.0001 0 30.723 0 25.8073V15.7138C0 14.8126 0.75 14.0752 1.66667 14.0752H28.3333Z" fill="black"/>
<path d="M9.16667 22.5301C8.73333 22.5301 8.3 22.3499 7.98333 22.0549C7.68333 21.7436 7.5 21.3176 7.5 20.8916C7.5 20.4655 7.68333 20.0395 7.98333 19.7282C8.45 19.2694 9.18334 19.1219 9.8 19.3841C10.0167 19.466 10.2 19.5807 10.35 19.7282C10.65 20.0395 10.8333 20.4655 10.8333 20.8916C10.8333 21.3176 10.65 21.7436 10.35 22.0549C10.0333 22.3499 9.6 22.5301 9.16667 22.5301Z" fill="black"/>
<path d="M14.9999 22.5301C14.5666 22.5301 14.1333 22.3499 13.8166 22.0549C13.5166 21.7436 13.3333 21.3176 13.3333 20.8916C13.3333 20.4655 13.5166 20.0395 13.8166 19.7282C13.9666 19.5807 14.1499 19.466 14.3666 19.3841C14.9833 19.1219 15.7166 19.2694 16.1833 19.7282C16.4833 20.0395 16.6666 20.4655 16.6666 20.8916C16.6666 21.3176 16.4833 21.7436 16.1833 22.0549C16.0999 22.1205 16.0166 22.186 15.9333 22.2515C15.8333 22.3171 15.7333 22.3663 15.6333 22.3991C15.5333 22.4482 15.4333 22.481 15.3333 22.4974C15.2166 22.5138 15.1166 22.5301 14.9999 22.5301Z" fill="black"/>
<path d="M20.8334 22.5301C20.4001 22.5301 19.9667 22.3499 19.6501 22.0549C19.3501 21.7436 19.1667 21.3176 19.1667 20.8916C19.1667 20.4655 19.3501 20.0395 19.6501 19.7282C19.8167 19.5807 19.9834 19.466 20.2001 19.3841C20.5001 19.253 20.8334 19.2202 21.1667 19.2858C21.2667 19.3021 21.3667 19.3349 21.4667 19.3841C21.5667 19.4168 21.6668 19.466 21.7668 19.5316C21.8501 19.5971 21.9334 19.6627 22.0167 19.7282C22.3167 20.0395 22.5001 20.4655 22.5001 20.8916C22.5001 21.3176 22.3167 21.7436 22.0167 22.0549C21.9334 22.1205 21.8501 22.186 21.7668 22.2515C21.6668 22.3171 21.5667 22.3663 21.4667 22.3991C21.3667 22.4482 21.2667 22.481 21.1667 22.4974C21.0501 22.5138 20.9334 22.5301 20.8334 22.5301Z" fill="black"/>
<path d="M9.16667 28.2651C8.95 28.2651 8.73333 28.216 8.53333 28.134C8.31666 28.0521 8.15 27.9374 7.98333 27.7899C7.68333 27.4786 7.5 27.0526 7.5 26.6266C7.5 26.2005 7.68333 25.7745 7.98333 25.4632C8.15 25.3157 8.31666 25.201 8.53333 25.1191C8.83333 24.988 9.16667 24.9552 9.5 25.0207C9.6 25.0371 9.7 25.0699 9.8 25.1191C9.9 25.1518 10 25.201 10.1 25.2666C10.1833 25.3321 10.2667 25.3976 10.35 25.4632C10.65 25.7745 10.8333 26.2005 10.8333 26.6266C10.8333 27.0526 10.65 27.4786 10.35 27.7899C10.2667 27.8555 10.1833 27.9374 10.1 27.9865C10 28.0521 9.9 28.1013 9.8 28.134C9.7 28.1832 9.6 28.216 9.5 28.2324C9.38333 28.2487 9.28333 28.2651 9.16667 28.2651Z" fill="black"/>
<path d="M14.9999 28.2651C14.5666 28.2651 14.1333 28.0848 13.8166 27.7899C13.5166 27.4786 13.3333 27.0526 13.3333 26.6265C13.3333 26.2005 13.5166 25.7745 13.8166 25.4632C14.4333 24.8569 15.5666 24.8569 16.1833 25.4632C16.4833 25.7745 16.6666 26.2005 16.6666 26.6265C16.6666 27.0526 16.4833 27.4786 16.1833 27.7899C15.8666 28.0848 15.4333 28.2651 14.9999 28.2651Z" fill="black"/>
<path d="M20.8334 28.2651C20.4001 28.2651 19.9667 28.0848 19.6501 27.7899C19.3501 27.4786 19.1667 27.0526 19.1667 26.6265C19.1667 26.2005 19.3501 25.7745 19.6501 25.4632C20.2667 24.8569 21.4001 24.8569 22.0167 25.4632C22.3167 25.7745 22.5001 26.2005 22.5001 26.6265C22.5001 27.0526 22.3167 27.4786 22.0167 27.7899C21.7001 28.0848 21.2667 28.2651 20.8334 28.2651Z" fill="black"/>
</svg>
